<?xml version="1.0" standalone="no"?>
<!DOCTYPE svg PUBLIC "-//W3C//DTD SVG 20010904//EN"
 "http://www.w3.org/TR/2001/REC-SVG-20010904/DTD/svg10.dtd">
<svg version="1.0" xmlns="http://www.w3.org/2000/svg"
 width="270.000000pt" height="270.000000pt" viewBox="0 0 270.000000 270.000000"
 preserveAspectRatio="xMidYMid meet">
<metadata>
Created by potrace 1.14, written by Peter Selinger 2001-2017
</metadata>
<g transform="translate(0.000000,270.000000) scale(0.100000,-0.100000)"
fill="#000000" stroke="none">
<path d="M0 1350 l0 -1350 1350 0 1350 0 0 1350 0 1350 -1350 0 -1350 0 0
-1350z m725 273 c114 -280 211 -514 214 -521 4 -6 101 222 216 508 l209 520
183 0 183 0 0 -29 c0 -28 -3 -30 -47 -36 -93 -13 -112 -23 -123 -66 -7 -26
-10 -232 -8 -614 3 -516 5 -576 19 -591 9 -9 49 -21 88 -27 l71 -11 0 -33 0
-33 -138 0 c-77 0 -200 3 -275 7 l-137 6 0 29 c0 26 3 28 38 28 57 0 110 18
124 43 16 27 25 1119 10 1102 -5 -5 -107 -254 -227 -552 l-218 -543 -37 0 -37
0 -183 468 c-100 257 -200 510 -221 562 l-38 95 0 -536 c-1 -295 2 -551 5
-568 9 -43 40 -62 114 -68 58 -6 60 -7 60 -34 l0 -29 -236 0 -235 0 3 28 c3
25 7 28 62 34 80 10 103 27 111 80 3 24 5 298 3 610 -3 505 -5 569 -19 583 -9
9 -48 21 -88 27 -69 11 -71 12 -71 40 l0 28 209 0 208 0 208 -507z"/>
</g>
</svg>
